<svg xmlns="http://www.w3.org/2000/svg" xmlns:xlink="http://www.w3.org/1999/xlink" width="500" zoomAndPan="magnify" viewBox="0 0 375 374.999991" height="500" preserveAspectRatio="xMidYMid meet" version="1.0"><defs><filter x="0%" y="0%" width="100%" height="100%" id="1dda3675bd"><feColorMatrix values="0 0 0 0 1 0 0 0 0 1 0 0 0 0 1 0 0 0 1 0" color-interpolation-filters="sRGB"/></filter><g/><mask id="65e3c8064d"><g filter="url(#1dda3675bd)"><rect x="-37.5" width="450" fill="#000000" y="-37.499999" height="449.999989" fill-opacity="0.14"/></g></mask><clipPath id="8f1290d364"><rect x="0" width="275" y="0" height="251"/></clipPath></defs><g mask="url(#65e3c8064d)"><g transform="matrix(1, 0, 0, 1, 50, 34)"><g clip-path="url(#8f1290d364)"><g fill="#ffc2c7" fill-opacity="1"><g transform="translate(0.97986, 203.026286)"><g><path d="M 155.140625 -128.75 C 150.648438 -128.5 147.375 -128 145.3125 -127.25 C 143.257812 -126.507812 141.859375 -125.078125 141.109375 -122.953125 C 140.359375 -120.828125 139.984375 -117.394531 139.984375 -112.65625 L 139.984375 -19.84375 C 139.984375 -15.09375 140.359375 -11.65625 141.109375 -9.53125 C 141.859375 -7.414062 143.257812 -5.984375 145.3125 -5.234375 C 147.375 -4.484375 150.648438 -3.988281 155.140625 -3.75 L 155.140625 0 C 149.398438 -0.375 141.476562 -0.5625 131.375 -0.5625 C 120.644531 -0.5625 112.660156 -0.375 107.421875 0 L 107.421875 -3.75 C 111.910156 -3.988281 115.179688 -4.484375 117.234375 -5.234375 C 119.296875 -5.984375 120.703125 -7.414062 121.453125 -9.53125 C 122.203125 -11.65625 122.578125 -15.09375 122.578125 -19.84375 L 122.578125 -120.140625 L 77.46875 0.9375 L 74.484375 0.9375 L 27.328125 -120.515625 L 27.328125 -21.703125 C 27.328125 -16.835938 27.726562 -13.21875 28.53125 -10.84375 C 29.34375 -8.476562 30.929688 -6.765625 33.296875 -5.703125 C 35.671875 -4.640625 39.359375 -3.988281 44.359375 -3.75 L 44.359375 0 C 39.859375 -0.375 33.492188 -0.5625 25.265625 -0.5625 C 17.773438 -0.5625 11.972656 -0.375 7.859375 0 L 7.859375 -3.75 C 12.222656 -3.988281 15.460938 -4.640625 17.578125 -5.703125 C 19.703125 -6.765625 21.140625 -8.507812 21.890625 -10.9375 C 22.640625 -13.375 23.015625 -16.960938 23.015625 -21.703125 L 23.015625 -112.65625 C 23.015625 -117.394531 22.640625 -120.828125 21.890625 -122.953125 C 21.140625 -125.078125 19.734375 -126.507812 17.671875 -127.25 C 15.617188 -128 12.347656 -128.5 7.859375 -128.75 L 7.859375 -132.5 C 11.972656 -132.125 17.773438 -131.9375 25.265625 -131.9375 C 31.753906 -131.9375 37.054688 -132.125 41.171875 -132.5 L 82.34375 -24.140625 L 122.578125 -131.9375 L 131.375 -131.9375 C 141.476562 -131.9375 149.398438 -132.125 155.140625 -132.5 Z M 155.140625 -128.75 "/></g></g></g><g fill="#ffc2c7" fill-opacity="1"><g transform="translate(163.975872, 203.026286)"><g><path d="M 55.578125 -128.75 C 51.085938 -128.5 47.8125 -128 45.75 -127.25 C 43.695312 -126.507812 42.296875 -125.078125 41.546875 -122.953125 C 40.796875 -120.828125 40.421875 -117.394531 40.421875 -112.65625 L 40.421875 -19.84375 C 40.421875 -15.09375 40.796875 -11.65625 41.546875 -9.53125 C 42.296875 -7.414062 43.695312 -6.015625 45.75 -5.328125 C 47.8125 -4.640625 51.085938 -4.296875 55.578125 -4.296875 L 69.234375 -4.296875 C 76.972656 -4.296875 82.867188 -5.390625 86.921875 -7.578125 C 90.984375 -9.765625 93.945312 -13.289062 95.8125 -18.15625 C 97.6875 -23.019531 99.0625 -30.066406 99.9375 -39.296875 L 104.234375 -39.296875 C 103.859375 -35.429688 103.671875 -30.316406 103.671875 -23.953125 C 103.671875 -16.835938 104.109375 -8.851562 104.984375 0 C 96.503906 -0.375 82.21875 -0.5625 62.125 -0.5625 C 38.175781 -0.5625 20.085938 -0.375 7.859375 0 L 7.859375 -3.75 C 12.347656 -3.988281 15.617188 -4.484375 17.671875 -5.234375 C 19.734375 -5.984375 21.140625 -7.414062 21.890625 -9.53125 C 22.640625 -11.65625 23.015625 -15.09375 23.015625 -19.84375 L 23.015625 -112.65625 C 23.015625 -117.394531 22.640625 -120.828125 21.890625 -122.953125 C 21.140625 -125.078125 19.734375 -126.507812 17.671875 -127.25 C 15.617188 -128 12.347656 -128.5 7.859375 -128.75 L 7.859375 -132.5 C 13.097656 -132.125 21.082031 -131.9375 31.8125 -131.9375 C 41.789062 -131.9375 49.710938 -132.125 55.578125 -132.5 Z M 55.578125 -128.75 "/></g></g></g></g></g></g><g fill="#ffffff" fill-opacity="1"><g transform="translate(14.924052, 209.596978)"><g><path d="M 80.542969 -15.796875 C 79.847656 -16.339844 77.367188 -16.574219 64.355469 -16.960938 C 65.984375 -23.621094 67.53125 -30.125 68.925781 -36.011719 C 70.941406 -44.375 72.722656 -51.65625 73.726562 -56.070312 C 75.199219 -62.730469 76.050781 -67.609375 76.4375 -71.015625 C 76.746094 -74.503906 76.59375 -76.980469 74.8125 -77.601562 C 71.25 -78.839844 66.601562 -70.628906 49.953125 -37.714844 C 46.621094 -31.132812 43.136719 -24.316406 39.652344 -17.65625 C 28.5 -17.96875 18.199219 -18.199219 16.726562 -18.507812 C 15.875 -18.664062 15.101562 -18.199219 14.945312 -17.347656 C 14.792969 -16.574219 15.335938 -15.796875 16.109375 -15.644531 C 17.734375 -15.257812 25.480469 -15.023438 38.179688 -14.714844 C 31.90625 -2.789062 25.789062 8.054688 20.910156 14.636719 C 18.355469 18.121094 15.953125 19.285156 13.785156 17.96875 C 8.054688 14.636719 3.640625 -5.035156 9.601562 -18.433594 C 14.714844 -29.972656 24.550781 -29.585938 31.90625 -27.261719 C 32.683594 -27.027344 33.535156 -27.492188 33.765625 -28.265625 C 34 -29.042969 33.609375 -29.894531 32.757812 -30.125 C 20.753906 -33.921875 11.539062 -30.203125 6.894531 -19.59375 C 1.007812 -6.429688 4.027344 15.796875 12.3125 20.601562 C 14.40625 21.761719 18.585938 22.847656 23.3125 16.417969 C 28.5 9.449219 34.925781 -2.089844 41.433594 -14.636719 C 42.59375 -14.558594 43.757812 -14.558594 44.917969 -14.558594 C 50.03125 -14.40625 55.527344 -14.25 60.640625 -14.09375 C 48.636719 37.019531 48.636719 43.757812 51.421875 44.917969 C 51.734375 44.996094 51.964844 45.074219 52.199219 45.074219 C 53.746094 45.074219 55.0625 43.136719 56.148438 41.277344 C 56.535156 40.582031 56.300781 39.652344 55.605469 39.1875 C 54.910156 38.800781 53.980469 39.03125 53.59375 39.730469 C 53.28125 40.195312 53.050781 40.582031 52.816406 40.890625 C 52.816406 38.101562 53.667969 30.976562 57.542969 12.777344 C 59.398438 4.335938 61.492188 -4.957031 63.660156 -14.015625 C 71.558594 -13.785156 77.832031 -13.554688 79.070312 -13.242188 C 79.226562 -13.164062 79.457031 -13.089844 79.691406 -13.089844 C 80.15625 -13.089844 80.621094 -13.320312 80.851562 -13.707031 C 81.316406 -14.40625 81.164062 -15.335938 80.542969 -15.796875 Z M 44.996094 -17.503906 C 44.296875 -17.503906 43.679688 -17.578125 42.980469 -17.578125 C 46.234375 -23.851562 49.488281 -30.203125 52.585938 -36.398438 C 60.40625 -51.8125 70.011719 -70.785156 73.574219 -74.269531 C 73.648438 -72.644531 73.417969 -68.304688 70.785156 -56.691406 C 69.855469 -52.273438 68.074219 -45.074219 66.0625 -36.707031 C 64.355469 -29.585938 62.730469 -23.078125 61.335938 -17.117188 C 57 -17.191406 51.578125 -17.347656 44.996094 -17.503906 Z M 44.996094 -17.503906 "/></g></g></g><g fill="#ffffff" fill-opacity="1"><g transform="translate(99.950444, 209.596978)"><g><path d="M 31.132812 -17.269531 C 30.4375 -17.65625 29.507812 -17.425781 29.121094 -16.652344 C 27.261719 -13.476562 22.382812 -4.878906 19.59375 -5.1875 C 19.050781 -5.265625 17.503906 -6.039062 15.953125 -11.460938 C 14.871094 -15.257812 13.398438 -18.820312 10.53125 -18.972656 C 8.441406 -19.128906 6.117188 -17.503906 2.554688 -10.84375 C 3.484375 -14.171875 4.492188 -17.503906 5.265625 -20.214844 C 5.574219 -21.21875 5.808594 -22.070312 6.039062 -22.921875 C 6.273438 -23.699219 5.808594 -24.550781 5.035156 -24.78125 C 4.257812 -25.015625 3.40625 -24.550781 3.175781 -23.699219 C 2.941406 -22.921875 2.710938 -21.996094 2.402344 -21.066406 C 0.386719 -14.171875 -2.632812 -3.71875 -3.40625 2.632812 C -3.484375 3.332031 -3.019531 4.027344 -2.324219 4.183594 C -2.167969 4.257812 -2.089844 4.257812 -1.9375 4.257812 C -1.316406 4.257812 -0.773438 3.871094 -0.542969 3.332031 C 6.738281 -14.792969 9.679688 -16.03125 10.378906 -16.03125 C 10.53125 -16.03125 11.617188 -15.722656 13.089844 -10.609375 C 14.636719 -5.265625 16.652344 -2.554688 19.285156 -2.246094 C 23.234375 -1.78125 26.796875 -6.660156 31.675781 -15.179688 C 32.140625 -15.953125 31.828125 -16.804688 31.132812 -17.269531 Z M 31.132812 -17.269531 "/></g></g></g><g fill="#ffffff" fill-opacity="1"><g transform="translate(127.595637, 209.596978)"><g><path d="M 32.371094 -17.191406 C 31.675781 -17.503906 30.746094 -17.191406 30.4375 -16.496094 C 24.550781 -4.492188 20.136719 -0.695312 18.042969 -1.085938 C 17.191406 -1.238281 14.40625 -2.867188 13.707031 -16.417969 C 13.707031 -17.039062 13.242188 -17.578125 12.699219 -17.734375 C 12.082031 -17.890625 11.382812 -17.734375 11.074219 -17.191406 C 10.609375 -16.652344 10.144531 -16.03125 9.679688 -15.335938 C 7.746094 -12.699219 5.1875 -9.136719 2.089844 -5.808594 C 1.625 -5.265625 1.238281 -4.957031 1.007812 -4.800781 C 0.464844 -7.511719 3.332031 -17.890625 7.898438 -21.140625 C 9.214844 -22.070312 10.996094 -22.769531 13.398438 -19.980469 C 13.941406 -19.359375 14.871094 -19.285156 15.488281 -19.824219 C 16.109375 -20.289062 16.1875 -21.296875 15.722656 -21.917969 C 12.777344 -25.324219 9.992188 -25.246094 8.132812 -24.628906 C 2.167969 -22.535156 -1.859375 -11.074219 -2.011719 -5.808594 C -2.089844 -3.640625 -1.472656 -2.246094 -0.230469 -1.78125 C 1.703125 -1.007812 3.640625 -3.097656 4.257812 -3.792969 C 6.894531 -6.660156 9.292969 -9.757812 10.996094 -12.160156 C 11.847656 -3.332031 13.941406 1.085938 17.425781 1.859375 C 17.734375 1.859375 18.042969 1.9375 18.355469 1.9375 C 23.621094 1.9375 29.273438 -7.28125 33.070312 -15.179688 C 33.457031 -15.953125 33.144531 -16.804688 32.371094 -17.191406 Z M 32.371094 -17.191406 "/></g></g></g><g fill="#ffffff" fill-opacity="1"><g transform="translate(156.402394, 209.596978)"><g/></g></g><g fill="#ffffff" fill-opacity="1"><g transform="translate(180.175708, 209.596978)"><g><path d="M 70.242188 -75.277344 C 64.433594 -79.226562 55.0625 -79.769531 43.988281 -76.746094 C 42.671875 -76.4375 41.433594 -76.050781 40.117188 -75.585938 C 40.195312 -75.894531 40.269531 -76.207031 40.347656 -76.515625 C 40.503906 -77.289062 39.960938 -78.066406 39.1875 -78.296875 C 38.414062 -78.453125 37.5625 -77.910156 37.40625 -77.136719 C 37.25 -76.285156 37.019531 -75.355469 36.785156 -74.347656 C 29.042969 -71.328125 21.605469 -66.988281 15.796875 -61.878906 C 4.800781 -52.273438 1.160156 -41.589844 5.808594 -32.371094 C 6.117188 -31.675781 7.046875 -31.363281 7.746094 -31.753906 C 8.519531 -32.0625 8.828125 -32.992188 8.441406 -33.765625 C 6.117188 -38.335938 4.257812 -47.859375 17.734375 -59.632812 C 22.769531 -64.046875 29.195312 -67.917969 35.933594 -70.785156 C 34.152344 -63.039062 31.597656 -52.507812 28.730469 -40.8125 C 24.242188 -22.535156 19.207031 -1.859375 15.566406 14.328125 C 13.554688 23.234375 12.160156 29.816406 11.382812 34.539062 C 10.066406 42.441406 10.378906 43.988281 11.925781 44.53125 C 12.082031 44.609375 12.3125 44.609375 12.546875 44.609375 C 13.941406 44.609375 15.023438 42.75 16.804688 38.722656 C 17.191406 38.027344 16.804688 37.097656 16.109375 36.785156 C 15.335938 36.476562 14.40625 36.785156 14.09375 37.5625 C 14.015625 37.792969 13.863281 38.027344 13.785156 38.179688 C 15.023438 29.195312 19.980469 7.898438 25.09375 -13.242188 C 26.949219 -9.292969 30.4375 -6.894531 35.003906 -6.582031 C 35.316406 -6.582031 35.703125 -6.582031 36.011719 -6.582031 C 41.898438 -6.582031 48.867188 -9.992188 55.21875 -16.03125 C 62.886719 -23.3125 69.390625 -34 74.039062 -47.007812 C 80.15625 -64.046875 75.355469 -71.792969 70.242188 -75.277344 Z M 71.25 -48.015625 C 65.597656 -32.21875 58.316406 -23.078125 53.128906 -18.121094 C 47.007812 -12.3125 40.503906 -9.214844 35.238281 -9.601562 C 30.824219 -9.835938 27.878906 -12.546875 26.949219 -17.191406 C 26.796875 -17.578125 26.5625 -17.890625 26.253906 -18.121094 C 28.113281 -25.789062 29.972656 -33.300781 31.597656 -40.117188 C 34.695312 -52.894531 37.484375 -64.203125 39.34375 -72.179688 C 41.125 -72.796875 42.980469 -73.417969 44.761719 -73.882812 C 54.910156 -76.59375 63.582031 -76.207031 68.617188 -72.796875 C 76.207031 -67.609375 74.269531 -56.457031 71.25 -48.015625 Z M 71.25 -48.015625 "/></g></g></g><g fill="#ffffff" fill-opacity="1"><g transform="translate(248.475611, 209.596978)"><g><path d="M 32.371094 -17.191406 C 31.675781 -17.503906 30.746094 -17.191406 30.4375 -16.496094 C 24.550781 -4.492188 20.136719 -0.695312 18.042969 -1.085938 C 17.191406 -1.238281 14.40625 -2.867188 13.707031 -16.417969 C 13.707031 -17.039062 13.242188 -17.578125 12.699219 -17.734375 C 12.082031 -17.890625 11.382812 -17.734375 11.074219 -17.191406 C 10.609375 -16.652344 10.144531 -16.03125 9.679688 -15.335938 C 7.746094 -12.699219 5.1875 -9.136719 2.089844 -5.808594 C 1.625 -5.265625 1.238281 -4.957031 1.007812 -4.800781 C 0.464844 -7.511719 3.332031 -17.890625 7.898438 -21.140625 C 9.214844 -22.070312 10.996094 -22.769531 13.398438 -19.980469 C 13.941406 -19.359375 14.871094 -19.285156 15.488281 -19.824219 C 16.109375 -20.289062 16.1875 -21.296875 15.722656 -21.917969 C 12.777344 -25.324219 9.992188 -25.246094 8.132812 -24.628906 C 2.167969 -22.535156 -1.859375 -11.074219 -2.011719 -5.808594 C -2.089844 -3.640625 -1.472656 -2.246094 -0.230469 -1.78125 C 1.703125 -1.007812 3.640625 -3.097656 4.257812 -3.792969 C 6.894531 -6.660156 9.292969 -9.757812 10.996094 -12.160156 C 11.847656 -3.332031 13.941406 1.085938 17.425781 1.859375 C 17.734375 1.859375 18.042969 1.9375 18.355469 1.9375 C 23.621094 1.9375 29.273438 -7.28125 33.070312 -15.179688 C 33.457031 -15.953125 33.144531 -16.804688 32.371094 -17.191406 Z M 32.371094 -17.191406 "/></g></g></g><g fill="#ffffff" fill-opacity="1"><g transform="translate(277.282357, 209.596978)"><g><path d="M 30.824219 -16.726562 C 30.125 -17.117188 29.195312 -16.882812 28.808594 -16.1875 C 21.453125 -4.414062 15.257812 0.851562 13.941406 0.386719 C 13.941406 0.386719 12.390625 -0.464844 13.863281 -9.371094 C 14.40625 -12.390625 14.636719 -14.09375 13.164062 -14.714844 C 11.773438 -15.257812 10.917969 -14.09375 9.292969 -11.773438 C 7.976562 -9.914062 6.195312 -7.433594 4.257812 -5.730469 C 4.027344 -5.574219 3.175781 -4.800781 2.789062 -5.113281 C 1.625 -6.039062 1.394531 -11.074219 4.105469 -15.722656 C 4.570312 -16.417969 4.257812 -17.347656 3.5625 -17.8125 C 2.867188 -18.199219 1.9375 -17.96875 1.550781 -17.269531 C -1.550781 -11.847656 -1.859375 -5.113281 0.851562 -2.867188 C 1.550781 -2.246094 3.484375 -1.160156 6.195312 -3.40625 C 7.976562 -4.957031 9.527344 -6.96875 10.765625 -8.675781 C 9.679688 -1.472656 10.300781 2.167969 12.855469 3.175781 C 13.242188 3.332031 13.628906 3.332031 13.941406 3.332031 C 19.824219 3.332031 29.351562 -11.539062 31.289062 -14.636719 C 31.753906 -15.335938 31.519531 -16.261719 30.824219 -16.726562 Z M 30.824219 -16.726562 "/></g></g></g><g fill="#ffffff" fill-opacity="1"><g transform="translate(305.004981, 209.596978)"><g><path d="M 22.769531 -72.566406 C 22.226562 -73.261719 21.453125 -73.574219 20.679688 -73.496094 C 16.261719 -72.722656 11.539062 -56.226562 10.222656 -51.191406 C 6.351562 -36.398438 1.472656 -15.410156 -2.476562 3.40625 C -4.335938 12.3125 -5.808594 19.824219 -6.738281 25.246094 C -8.285156 34.386719 -8.054688 35.546875 -6.582031 35.933594 C -6.429688 36.011719 -6.273438 36.011719 -6.117188 36.011719 C -4.722656 36.011719 -4.027344 34.152344 -3.332031 32.140625 C -3.097656 31.363281 -3.484375 30.511719 -4.257812 30.28125 C -4.335938 30.203125 -4.414062 30.203125 -4.492188 30.203125 C -2.867188 19.050781 3.792969 -13.398438 10.609375 -40.582031 C 10.609375 -40.660156 10.6875 -40.734375 10.765625 -40.8125 C 20.832031 -56.765625 24.78125 -69.46875 22.769531 -72.566406 Z M 13.242188 -51.035156 C 16.1875 -61.957031 18.820312 -67.222656 20.214844 -69.390625 C 19.902344 -66.523438 18.199219 -60.328125 13.242188 -51.035156 Z M 13.242188 -51.035156 "/></g></g></g><g fill="#ffffff" fill-opacity="1"><g transform="translate(316.77548, 209.596978)"><g><path d="M 32.371094 -17.191406 C 31.675781 -17.503906 30.746094 -17.191406 30.4375 -16.496094 C 24.550781 -4.492188 20.136719 -0.695312 18.042969 -1.085938 C 17.191406 -1.238281 14.40625 -2.867188 13.707031 -16.417969 C 13.707031 -17.039062 13.242188 -17.578125 12.699219 -17.734375 C 12.082031 -17.890625 11.382812 -17.734375 11.074219 -17.191406 C 10.609375 -16.652344 10.144531 -16.03125 9.679688 -15.335938 C 7.746094 -12.699219 5.1875 -9.136719 2.089844 -5.808594 C 1.625 -5.265625 1.238281 -4.957031 1.007812 -4.800781 C 0.464844 -7.511719 3.332031 -17.890625 7.898438 -21.140625 C 9.214844 -22.070312 10.996094 -22.769531 13.398438 -19.980469 C 13.941406 -19.359375 14.871094 -19.285156 15.488281 -19.824219 C 16.109375 -20.289062 16.1875 -21.296875 15.722656 -21.917969 C 12.777344 -25.324219 9.992188 -25.246094 8.132812 -24.628906 C 2.167969 -22.535156 -1.859375 -11.074219 -2.011719 -5.808594 C -2.089844 -3.640625 -1.472656 -2.246094 -0.230469 -1.78125 C 1.703125 -1.007812 3.640625 -3.097656 4.257812 -3.792969 C 6.894531 -6.660156 9.292969 -9.757812 10.996094 -12.160156 C 11.847656 -3.332031 13.941406 1.085938 17.425781 1.859375 C 17.734375 1.859375 18.042969 1.9375 18.355469 1.9375 C 23.621094 1.9375 29.273438 -7.28125 33.070312 -15.179688 C 33.457031 -15.953125 33.144531 -16.804688 32.371094 -17.191406 Z M 32.371094 -17.191406 "/></g></g></g></svg>