<svg xmlns="http://www.w3.org/2000/svg" xmlns:xlink="http://www.w3.org/1999/xlink" width="719" zoomAndPan="magnify" viewBox="0 0 539.25 562.499982" height="750" preserveAspectRatio="xMidYMid meet" version="1.0"><defs><g/><clipPath id="ad13add8e2"><path d="M 12.65625 24.40625 L 525.847656 24.40625 L 525.847656 537.597656 L 12.65625 537.597656 Z M 12.65625 24.40625 " clip-rule="nonzero"/></clipPath><clipPath id="8f3514da5c"><path d="M 269.25 24.40625 C 410.964844 24.40625 525.847656 139.285156 525.847656 281 C 525.847656 422.714844 410.964844 537.597656 269.25 537.597656 C 127.535156 537.597656 12.65625 422.714844 12.65625 281 C 12.65625 139.285156 127.535156 24.40625 269.25 24.40625 L 269.25 96.25 C 167.214844 96.25 84.5 178.964844 84.5 281 C 84.5 383.035156 167.214844 465.75 269.25 465.75 C 371.285156 465.75 454 383.035156 454 281 C 454 178.964844 371.285156 96.25 269.25 96.25 Z M 269.25 24.40625 " clip-rule="nonzero"/></clipPath><clipPath id="0b4a7ffa2f"><path d="M 78 27 L 526 27 L 526 538 L 78 538 Z M 78 27 " clip-rule="nonzero"/></clipPath><clipPath id="e666fd73a3"><path d="M 311.023438 27.828125 C 420.300781 45.859375 505.679688 131.972656 522.773438 241.402344 C 539.863281 350.835938 484.8125 458.882812 386.234375 509.378906 C 287.65625 559.875 167.800781 541.417969 88.980469 463.605469 C 74.863281 449.667969 74.714844 426.921875 88.65625 412.804688 C 102.59375 398.683594 125.339844 398.539062 139.457031 412.476562 C 196.207031 468.5 282.5 481.789062 353.476562 445.433594 C 424.453125 409.074219 464.09375 331.28125 451.785156 252.492188 C 439.480469 173.699219 378.007812 111.699219 299.324219 98.714844 C 286.664062 96.625 276.078125 87.941406 271.554688 75.929688 C 267.03125 63.917969 269.261719 50.40625 277.402344 40.484375 C 285.542969 30.5625 298.359375 25.738281 311.023438 27.828125 Z M 311.023438 27.828125 " clip-rule="nonzero"/></clipPath></defs><g fill="#ffffff" fill-opacity="1"><g transform="translate(149.644136, 327.632478)"><g><path d="M 6.953125 -37.109375 C 6.953125 -54.179688 10.265625 -66.941406 16.890625 -75.390625 C 23.523438 -83.847656 33.335938 -88.078125 46.328125 -88.078125 C 50.796875 -88.078125 54.316406 -87.695312 56.890625 -86.9375 L 56.890625 -78.453125 C 53.835938 -79.441406 50.351562 -79.9375 46.4375 -79.9375 C 37.132812 -79.9375 30.023438 -77.035156 25.109375 -71.234375 C 20.203125 -65.429688 17.515625 -56.316406 17.046875 -43.890625 L 17.75 -43.890625 C 22.113281 -50.703125 29.003906 -54.109375 38.421875 -54.109375 C 46.222656 -54.109375 52.367188 -51.75 56.859375 -47.03125 C 61.359375 -42.320312 63.609375 -35.929688 63.609375 -27.859375 C 63.609375 -18.828125 61.140625 -11.726562 56.203125 -6.5625 C 51.273438 -1.394531 44.613281 1.1875 36.21875 1.1875 C 27.238281 1.1875 20.113281 -2.1875 14.84375 -8.9375 C 9.582031 -15.6875 6.953125 -25.078125 6.953125 -37.109375 Z M 36.109375 -7.1875 C 41.734375 -7.1875 46.097656 -8.957031 49.203125 -12.5 C 52.304688 -16.039062 53.859375 -21.160156 53.859375 -27.859375 C 53.859375 -33.597656 52.410156 -38.109375 49.515625 -41.390625 C 46.628906 -44.679688 42.316406 -46.328125 36.578125 -46.328125 C 33.015625 -46.328125 29.75 -45.59375 26.78125 -44.125 C 23.8125 -42.65625 21.445312 -40.632812 19.6875 -38.0625 C 17.925781 -35.488281 17.046875 -32.816406 17.046875 -30.046875 C 17.046875 -25.972656 17.835938 -22.171875 19.421875 -18.640625 C 21.003906 -15.117188 23.25 -12.328125 26.15625 -10.265625 C 29.070312 -8.210938 32.390625 -7.1875 36.109375 -7.1875 Z M 36.109375 -7.1875 "/></g></g></g><g fill="#ffffff" fill-opacity="1"><g transform="translate(219.184417, 327.632478)"><g><path d="M 33.078125 -53.03125 C 42.222656 -53.03125 49.414062 -50.765625 54.65625 -46.234375 C 59.90625 -41.703125 62.53125 -35.492188 62.53125 -27.609375 C 62.53125 -18.628906 59.671875 -11.582031 53.953125 -6.46875 C 48.234375 -1.363281 40.34375 1.1875 30.28125 1.1875 C 20.507812 1.1875 13.050781 -0.375 7.90625 -3.5 L 7.90625 -13 C 10.675781 -11.21875 14.117188 -9.820312 18.234375 -8.8125 C 22.347656 -7.800781 26.40625 -7.296875 30.40625 -7.296875 C 37.375 -7.296875 42.785156 -8.9375 46.640625 -12.21875 C 50.503906 -15.507812 52.4375 -20.265625 52.4375 -26.484375 C 52.4375 -38.597656 45.015625 -44.65625 30.171875 -44.65625 C 26.410156 -44.65625 21.378906 -44.082031 15.078125 -42.9375 L 9.984375 -46.203125 L 13.25 -86.828125 L 56.421875 -86.828125 L 56.421875 -77.734375 L 21.671875 -77.734375 L 19.484375 -51.671875 C 24.035156 -52.578125 28.566406 -53.03125 33.078125 -53.03125 Z M 33.078125 -53.03125 "/></g></g></g><g fill="#ffffff" fill-opacity="1"><g transform="translate(288.724697, 327.632478)"><g><path d="M 14.375 -60.9375 C 14.375 -54.195312 15.101562 -49.144531 16.5625 -45.78125 C 18.03125 -42.414062 20.410156 -40.734375 23.703125 -40.734375 C 30.191406 -40.734375 33.4375 -47.46875 33.4375 -60.9375 C 33.4375 -74.3125 30.191406 -81 23.703125 -81 C 20.410156 -81 18.03125 -79.335938 16.5625 -76.015625 C 15.101562 -72.691406 14.375 -67.664062 14.375 -60.9375 Z M 41.578125 -60.9375 C 41.578125 -51.90625 40.0625 -45.082031 37.03125 -40.46875 C 34 -35.851562 29.554688 -33.546875 23.703125 -33.546875 C 18.148438 -33.546875 13.835938 -35.898438 10.765625 -40.609375 C 7.703125 -45.328125 6.171875 -52.101562 6.171875 -60.9375 C 6.171875 -69.914062 7.644531 -76.679688 10.59375 -81.234375 C 13.550781 -85.796875 17.921875 -88.078125 23.703125 -88.078125 C 29.441406 -88.078125 33.851562 -85.71875 36.9375 -81 C 40.03125 -76.289062 41.578125 -69.601562 41.578125 -60.9375 Z M 66.625 -26.125 C 66.625 -19.351562 67.359375 -14.296875 68.828125 -10.953125 C 70.296875 -7.609375 72.691406 -5.9375 76.015625 -5.9375 C 79.335938 -5.9375 81.789062 -7.585938 83.375 -10.890625 C 84.957031 -14.203125 85.75 -19.28125 85.75 -26.125 C 85.75 -32.894531 84.957031 -37.910156 83.375 -41.171875 C 81.789062 -44.441406 79.335938 -46.078125 76.015625 -46.078125 C 72.691406 -46.078125 70.296875 -44.441406 68.828125 -41.171875 C 67.359375 -37.910156 66.625 -32.894531 66.625 -26.125 Z M 93.890625 -26.125 C 93.890625 -17.144531 92.375 -10.347656 89.34375 -5.734375 C 86.320312 -1.117188 81.878906 1.1875 76.015625 1.1875 C 70.390625 1.1875 66.0625 -1.164062 63.03125 -5.875 C 60.007812 -10.59375 58.5 -17.34375 58.5 -26.125 C 58.5 -35.113281 59.972656 -41.882812 62.921875 -46.4375 C 65.867188 -50.988281 70.234375 -53.265625 76.015625 -53.265625 C 81.640625 -53.265625 86.023438 -50.9375 89.171875 -46.28125 C 92.316406 -41.632812 93.890625 -34.914062 93.890625 -26.125 Z M 78.5625 -86.828125 L 30.40625 0 L 21.671875 0 L 69.84375 -86.828125 Z M 78.5625 -86.828125 "/></g></g></g><g clip-path="url(#ad13add8e2)"><g clip-path="url(#8f3514da5c)"><path fill="#e4dfcb" d="M 12.65625 24.40625 L 525.847656 24.40625 L 525.847656 537.597656 L 12.65625 537.597656 Z M 12.65625 24.40625 " fill-opacity="1" fill-rule="nonzero"/></g></g><g clip-path="url(#0b4a7ffa2f)"><g clip-path="url(#e666fd73a3)"><path fill="#ea9d5a" d="M 12.65625 24.40625 L 525.847656 24.40625 L 525.847656 537.597656 L 12.65625 537.597656 Z M 12.65625 24.40625 " fill-opacity="1" fill-rule="nonzero"/></g></g></svg>