<svg xmlns="http://www.w3.org/2000/svg" xmlns:xlink="http://www.w3.org/1999/xlink" width="719" zoomAndPan="magnify" viewBox="0 0 539.25 562.499982" height="750" preserveAspectRatio="xMidYMid meet" version="1.0"><defs><g/><clipPath id="962c705ad1"><path d="M 12.65625 24.40625 L 525.847656 24.40625 L 525.847656 537.597656 L 12.65625 537.597656 Z M 12.65625 24.40625 " clip-rule="nonzero"/></clipPath><clipPath id="77ba2f6291"><path d="M 269.25 24.40625 C 410.964844 24.40625 525.847656 139.285156 525.847656 281 C 525.847656 422.714844 410.964844 537.597656 269.25 537.597656 C 127.535156 537.597656 12.65625 422.714844 12.65625 281 C 12.65625 139.285156 127.535156 24.40625 269.25 24.40625 L 269.25 96.25 C 167.214844 96.25 84.5 178.964844 84.5 281 C 84.5 383.035156 167.214844 465.75 269.25 465.75 C 371.285156 465.75 454 383.035156 454 281 C 454 178.964844 371.285156 96.25 269.25 96.25 Z M 269.25 24.40625 " clip-rule="nonzero"/></clipPath><clipPath id="c65992a737"><path d="M 269 27 L 526 27 L 526 351 L 269 351 Z M 269 27 " clip-rule="nonzero"/></clipPath><clipPath id="4d48ef5859"><path d="M 311.023438 27.828125 C 449.574219 50.6875 544.015625 180.671875 522.941406 319.507812 C 519.960938 339.125 501.648438 352.609375 482.03125 349.632812 C 462.417969 346.65625 448.929688 328.339844 451.90625 308.726562 C 467.082031 208.765625 399.082031 115.175781 299.324219 98.714844 C 286.664062 96.625 276.078125 87.941406 271.554688 75.929688 C 267.03125 63.917969 269.261719 50.40625 277.402344 40.484375 C 285.542969 30.5625 298.359375 25.738281 311.023438 27.828125 Z M 311.023438 27.828125 " clip-rule="nonzero"/></clipPath></defs><g fill="#ffffff" fill-opacity="1"><g transform="translate(149.644136, 327.632535)"><g><path d="M 59.75 -66.390625 C 59.75 -60.847656 58.191406 -56.316406 55.078125 -52.796875 C 51.972656 -49.273438 47.570312 -46.921875 41.875 -45.734375 L 41.875 -45.25 C 48.832031 -44.382812 53.992188 -42.164062 57.359375 -38.59375 C 60.734375 -35.03125 62.421875 -30.363281 62.421875 -24.59375 C 62.421875 -16.3125 59.546875 -9.941406 53.796875 -5.484375 C 48.054688 -1.035156 39.90625 1.1875 29.34375 1.1875 C 24.75 1.1875 20.539062 0.835938 16.71875 0.140625 C 12.894531 -0.546875 9.179688 -1.757812 5.578125 -3.5 L 5.578125 -12.890625 C 9.335938 -11.023438 13.347656 -9.609375 17.609375 -8.640625 C 21.867188 -7.671875 25.894531 -7.1875 29.6875 -7.1875 C 44.695312 -7.1875 52.203125 -13.066406 52.203125 -24.828125 C 52.203125 -35.359375 43.925781 -40.625 27.375 -40.625 L 18.828125 -40.625 L 18.828125 -49.109375 L 27.5 -49.109375 C 34.269531 -49.109375 39.632812 -50.601562 43.59375 -53.59375 C 47.550781 -56.582031 49.53125 -60.726562 49.53125 -66.03125 C 49.53125 -70.269531 48.070312 -73.597656 45.15625 -76.015625 C 42.25 -78.429688 38.300781 -79.640625 33.3125 -79.640625 C 29.507812 -79.640625 25.925781 -79.125 22.5625 -78.09375 C 19.195312 -77.0625 15.359375 -75.160156 11.046875 -72.390625 L 6.0625 -79.046875 C 9.625 -81.859375 13.726562 -84.066406 18.375 -85.671875 C 23.03125 -87.273438 27.929688 -88.078125 33.078125 -88.078125 C 41.515625 -88.078125 48.066406 -86.144531 52.734375 -82.28125 C 57.410156 -78.414062 59.75 -73.117188 59.75 -66.390625 Z M 59.75 -66.390625 "/></g></g></g><g fill="#ffffff" fill-opacity="1"><g transform="translate(219.184417, 327.632535)"><g><path d="M 63.484375 -43.53125 C 63.484375 -28.519531 61.117188 -17.3125 56.390625 -9.90625 C 51.660156 -2.507812 44.425781 1.1875 34.6875 1.1875 C 25.34375 1.1875 18.234375 -2.601562 13.359375 -10.1875 C 8.492188 -17.769531 6.0625 -28.882812 6.0625 -43.53125 C 6.0625 -58.65625 8.414062 -69.878906 13.125 -77.203125 C 17.832031 -84.523438 25.019531 -88.1875 34.6875 -88.1875 C 44.101562 -88.1875 51.253906 -84.363281 56.140625 -76.71875 C 61.035156 -69.082031 63.484375 -58.019531 63.484375 -43.53125 Z M 16.03125 -43.53125 C 16.03125 -30.90625 17.515625 -21.707031 20.484375 -15.9375 C 23.453125 -10.175781 28.1875 -7.296875 34.6875 -7.296875 C 41.257812 -7.296875 46.019531 -10.21875 48.96875 -16.0625 C 51.914062 -21.90625 53.390625 -31.0625 53.390625 -43.53125 C 53.390625 -56 51.914062 -65.132812 48.96875 -70.9375 C 46.019531 -76.738281 41.257812 -79.640625 34.6875 -79.640625 C 28.1875 -79.640625 23.453125 -76.773438 20.484375 -71.046875 C 17.515625 -65.328125 16.03125 -56.15625 16.03125 -43.53125 Z M 16.03125 -43.53125 "/></g></g></g><g fill="#ffffff" fill-opacity="1"><g transform="translate(288.724697, 327.632535)"><g><path d="M 14.375 -60.9375 C 14.375 -54.195312 15.101562 -49.144531 16.5625 -45.78125 C 18.03125 -42.414062 20.410156 -40.734375 23.703125 -40.734375 C 30.191406 -40.734375 33.4375 -47.46875 33.4375 -60.9375 C 33.4375 -74.3125 30.191406 -81 23.703125 -81 C 20.410156 -81 18.03125 -79.335938 16.5625 -76.015625 C 15.101562 -72.691406 14.375 -67.664062 14.375 -60.9375 Z M 41.578125 -60.9375 C 41.578125 -51.90625 40.0625 -45.082031 37.03125 -40.46875 C 34 -35.851562 29.554688 -33.546875 23.703125 -33.546875 C 18.148438 -33.546875 13.835938 -35.898438 10.765625 -40.609375 C 7.703125 -45.328125 6.171875 -52.101562 6.171875 -60.9375 C 6.171875 -69.914062 7.644531 -76.679688 10.59375 -81.234375 C 13.550781 -85.796875 17.921875 -88.078125 23.703125 -88.078125 C 29.441406 -88.078125 33.851562 -85.71875 36.9375 -81 C 40.03125 -76.289062 41.578125 -69.601562 41.578125 -60.9375 Z M 66.625 -26.125 C 66.625 -19.351562 67.359375 -14.296875 68.828125 -10.953125 C 70.296875 -7.609375 72.691406 -5.9375 76.015625 -5.9375 C 79.335938 -5.9375 81.789062 -7.585938 83.375 -10.890625 C 84.957031 -14.203125 85.75 -19.28125 85.75 -26.125 C 85.75 -32.894531 84.957031 -37.910156 83.375 -41.171875 C 81.789062 -44.441406 79.335938 -46.078125 76.015625 -46.078125 C 72.691406 -46.078125 70.296875 -44.441406 68.828125 -41.171875 C 67.359375 -37.910156 66.625 -32.894531 66.625 -26.125 Z M 93.890625 -26.125 C 93.890625 -17.144531 92.375 -10.347656 89.34375 -5.734375 C 86.320312 -1.117188 81.878906 1.1875 76.015625 1.1875 C 70.390625 1.1875 66.0625 -1.164062 63.03125 -5.875 C 60.007812 -10.59375 58.5 -17.34375 58.5 -26.125 C 58.5 -35.113281 59.972656 -41.882812 62.921875 -46.4375 C 65.867188 -50.988281 70.234375 -53.265625 76.015625 -53.265625 C 81.640625 -53.265625 86.023438 -50.9375 89.171875 -46.28125 C 92.316406 -41.632812 93.890625 -34.914062 93.890625 -26.125 Z M 78.5625 -86.828125 L 30.40625 0 L 21.671875 0 L 69.84375 -86.828125 Z M 78.5625 -86.828125 "/></g></g></g><g clip-path="url(#962c705ad1)"><g clip-path="url(#77ba2f6291)"><path fill="#e4dfcb" d="M 12.65625 24.40625 L 525.847656 24.40625 L 525.847656 537.597656 L 12.65625 537.597656 Z M 12.65625 24.40625 " fill-opacity="1" fill-rule="nonzero"/></g></g><g clip-path="url(#c65992a737)"><g clip-path="url(#4d48ef5859)"><path fill="#ea9d5a" d="M 12.65625 24.40625 L 525.847656 24.40625 L 525.847656 537.597656 L 12.65625 537.597656 Z M 12.65625 24.40625 " fill-opacity="1" fill-rule="nonzero"/></g></g></svg>